# xmcd
#
# Track frame offsets:
#	180
#	13983
#	30777
#	47324
#	64477
#	81369
#	101267
#	117745
#	135456
#	152067
#
# Disc length: 2144 seconds
#
# Revision: 1
# Processed by: cddbd v1.5.2PL0 Copyright (c) Steve Scherf et al.
# Submitted via: audiograbber 1.83.01
#
DISCID=7a085e0a
DTITLE=Fokker - Fokker 1
DYEAR=1997
DGENRE=Soft Pop
TTITLE0=Hopp Hopp
TTITLE1=Badewanne
TTITLE2=Paradies
TTITLE3=Komisch
TTITLE4=Schiffe im Hafen
TTITLE5=Kleine Melodie
TTITLE6=ICE
TTITLE7=Ve-ve-verliebt
TTITLE8=1-2-3-4-5-6-7
TTITLE9=Papa !!
EXTD=
EXTT0=
EXTT1=
EXTT2=
EXTT3=
EXTT4=
EXTT5=
EXTT6=
EXTT7=
EXTT8=
EXTT9=
PLAYORDER=
